<svg xmlns="http://www.w3.org/2000/svg" version="1.1" xmlns:xlink="http://www.w3.org/1999/xlink" xmlns:svgjs="http://svgjs.com/svgjs" width="1000" height="1000"><rect width="1000" height="1000" rx="200" ry="200" fill="#0a0a0a"></rect><g transform="matrix(4.017857142857143,0,0,4.017857142857143,52.69825998693699,339.9928531135831)"><svg xmlns="http://www.w3.org/2000/svg" version="1.1" xmlns:xlink="http://www.w3.org/1999/xlink" xmlns:svgjs="http://svgjs.com/svgjs" width="224" height="81"><svg width="224" height="81" viewBox="0 0 224 81" fill="none" xmlns="http://www.w3.org/2000/svg">
<mask id="path-1-outside-1_275_1586" maskUnits="userSpaceOnUse" x="0" y="15" width="222" height="50" fill="black">
<rect fill="white" y="15" width="222" height="50"></rect>
<path d="M2.112 29.36H9.856L14.592 52.912H14.912L28.224 29.36H36.16L16.768 62H9.728L2.112 29.36ZM46.7925 63.024C44.8298 63.024 43.0378 62.5973 41.4165 61.744C39.7952 60.848 38.4938 59.632 37.5125 58.096C36.5738 56.56 36.1045 54.832 36.1045 52.912C36.1045 49.2853 37.4058 46.4053 40.0085 44.272C42.6112 42.1387 46.2592 41.072 50.9525 41.072C52.5312 41.072 54.0885 41.2427 55.6245 41.584C57.1605 41.9253 58.5472 42.3733 59.7845 42.928L60.1045 41.328C60.2325 40.688 60.2965 40.176 60.2965 39.792C60.2965 38.1707 59.5925 36.8693 58.1845 35.888C56.8192 34.864 55.1338 34.352 53.1285 34.352C49.8005 34.352 47.0698 35.632 44.9365 38.192L39.8805 34.544C41.5018 32.5387 43.5285 31.0027 45.9605 29.936C48.3925 28.8693 51.0378 28.336 53.8965 28.336C57.9925 28.336 61.2138 29.3173 63.5605 31.28C65.9072 33.2427 67.0805 35.8453 67.0805 39.088C67.0805 39.984 66.9738 41.1147 66.7605 42.48L63.3045 62H56.3925L57.0965 58.096H56.7125C55.6458 59.632 54.2805 60.848 52.6165 61.744C50.9525 62.5973 49.0112 63.024 46.7925 63.024ZM48.8405 57.2C51.4005 57.2 53.5978 56.368 55.4325 54.704C57.2672 53.04 58.3978 50.9067 58.8245 48.304C57.6298 47.664 56.4352 47.1947 55.2405 46.896C54.0885 46.5973 52.6378 46.448 50.8885 46.448C48.5845 46.448 46.7498 46.9813 45.3845 48.048C44.0192 49.072 43.3365 50.5227 43.3365 52.4C43.3365 53.8507 43.8485 55.024 44.8725 55.92C45.9392 56.7733 47.2618 57.2 48.8405 57.2ZM78.4065 16.176H85.4465L77.3825 62H70.3425L78.4065 16.176ZM102.174 63.024C99.1878 63.024 96.5212 62.3413 94.1745 60.976C91.8705 59.6107 90.0785 57.7547 88.7985 55.408C87.5185 53.0613 86.8785 50.4587 86.8785 47.6C86.8785 44.016 87.6892 40.752 89.3105 37.808C90.9318 34.864 93.1932 32.56 96.0945 30.896C99.0385 29.1893 102.409 28.336 106.206 28.336C109.193 28.336 111.838 29.0187 114.142 30.384C116.489 31.7493 118.303 33.6053 119.583 35.952C120.862 38.2987 121.502 40.9013 121.502 43.76C121.502 47.344 120.692 50.608 119.07 53.552C117.449 56.496 115.167 58.8213 112.222 60.528C109.321 62.192 105.972 63.024 102.174 63.024ZM102.942 56.56C105.076 56.56 106.996 56.0267 108.702 54.96C110.452 53.8507 111.817 52.3787 112.799 50.544C113.822 48.6667 114.334 46.6187 114.334 44.4C114.334 41.6267 113.524 39.344 111.903 37.552C110.281 35.76 108.126 34.864 105.438 34.864C103.262 34.864 101.3 35.3973 99.5505 36.464C97.8438 37.5307 96.4785 39.0027 95.4545 40.88C94.4732 42.7147 93.9825 44.7413 93.9825 46.96C93.9825 49.7333 94.7932 52.0373 96.4145 53.872C98.0785 55.664 100.254 56.56 102.942 56.56ZM130.132 29.36H136.788L136.02 33.776H136.34C137.279 32.112 138.687 30.8107 140.564 29.872C142.484 28.8907 144.554 28.4 146.772 28.4C148.394 28.4 149.674 28.6133 150.612 29.04L149.268 36.528C148.671 36.144 147.946 35.8453 147.092 35.632C146.239 35.4187 145.386 35.312 144.532 35.312C142.1 35.312 139.924 36.2293 138.004 38.064C136.084 39.8987 134.89 42.1173 134.42 44.72L131.412 62H124.372L130.132 29.36ZM161.602 63.024C159.64 63.024 157.848 62.5973 156.226 61.744C154.605 60.848 153.304 59.632 152.322 58.096C151.384 56.56 150.914 54.832 150.914 52.912C150.914 49.2853 152.216 46.4053 154.818 44.272C157.421 42.1387 161.069 41.072 165.762 41.072C167.341 41.072 168.898 41.2427 170.434 41.584C171.97 41.9253 173.357 42.3733 174.594 42.928L174.914 41.328C175.042 40.688 175.106 40.176 175.106 39.792C175.106 38.1707 174.402 36.8693 172.994 35.888C171.629 34.864 169.944 34.352 167.938 34.352C164.61 34.352 161.88 35.632 159.746 38.192L154.69 34.544C156.312 32.5387 158.338 31.0027 160.77 29.936C163.202 28.8693 165.848 28.336 168.706 28.336C172.802 28.336 176.024 29.3173 178.37 31.28C180.717 33.2427 181.89 35.8453 181.89 39.088C181.89 39.984 181.784 41.1147 181.57 42.48L178.114 62H171.202L171.906 58.096H171.522C170.456 59.632 169.09 60.848 167.426 61.744C165.762 62.5973 163.821 63.024 161.602 63.024ZM163.65 57.2C166.21 57.2 168.408 56.368 170.242 54.704C172.077 53.04 173.208 50.9067 173.634 48.304C172.44 47.664 171.245 47.1947 170.05 46.896C168.898 46.5973 167.448 46.448 165.698 46.448C163.394 46.448 161.56 46.9813 160.194 48.048C158.829 49.072 158.146 50.5227 158.146 52.4C158.146 53.8507 158.658 55.024 159.682 55.92C160.749 56.7733 162.072 57.2 163.65 57.2ZM201.032 63.024C198.045 63.024 195.379 62.3413 193.032 60.976C190.728 59.6107 188.936 57.7547 187.656 55.408C186.376 53.0613 185.736 50.4587 185.736 47.6C185.736 44.016 186.547 40.752 188.168 37.808C189.789 34.864 192.051 32.56 194.952 30.896C197.896 29.1893 201.267 28.336 205.064 28.336C208.051 28.336 210.696 29.0187 213 30.384C215.347 31.7493 217.16 33.6053 218.44 35.952C219.72 38.2987 220.36 40.9013 220.36 43.76C220.36 47.344 219.549 50.608 217.928 53.552C216.307 56.496 214.024 58.8213 211.08 60.528C208.179 62.192 204.829 63.024 201.032 63.024ZM201.8 56.56C203.933 56.56 205.853 56.0267 207.56 54.96C209.309 53.8507 210.675 52.3787 211.656 50.544C212.68 48.6667 213.192 46.6187 213.192 44.4C213.192 41.6267 212.381 39.344 210.76 37.552C209.139 35.76 206.984 34.864 204.296 34.864C202.12 34.864 200.157 35.3973 198.408 36.464C196.701 37.5307 195.336 39.0027 194.312 40.88C193.331 42.7147 192.84 44.7413 192.84 46.96C192.84 49.7333 193.651 52.0373 195.272 53.872C196.936 55.664 199.112 56.56 201.8 56.56Z"></path>
</mask>
<path d="M2.112 29.36H9.856L14.592 52.912H14.912L28.224 29.36H36.16L16.768 62H9.728L2.112 29.36ZM46.7925 63.024C44.8298 63.024 43.0378 62.5973 41.4165 61.744C39.7952 60.848 38.4938 59.632 37.5125 58.096C36.5738 56.56 36.1045 54.832 36.1045 52.912C36.1045 49.2853 37.4058 46.4053 40.0085 44.272C42.6112 42.1387 46.2592 41.072 50.9525 41.072C52.5312 41.072 54.0885 41.2427 55.6245 41.584C57.1605 41.9253 58.5472 42.3733 59.7845 42.928L60.1045 41.328C60.2325 40.688 60.2965 40.176 60.2965 39.792C60.2965 38.1707 59.5925 36.8693 58.1845 35.888C56.8192 34.864 55.1338 34.352 53.1285 34.352C49.8005 34.352 47.0698 35.632 44.9365 38.192L39.8805 34.544C41.5018 32.5387 43.5285 31.0027 45.9605 29.936C48.3925 28.8693 51.0378 28.336 53.8965 28.336C57.9925 28.336 61.2138 29.3173 63.5605 31.28C65.9072 33.2427 67.0805 35.8453 67.0805 39.088C67.0805 39.984 66.9738 41.1147 66.7605 42.48L63.3045 62H56.3925L57.0965 58.096H56.7125C55.6458 59.632 54.2805 60.848 52.6165 61.744C50.9525 62.5973 49.0112 63.024 46.7925 63.024ZM48.8405 57.2C51.4005 57.2 53.5978 56.368 55.4325 54.704C57.2672 53.04 58.3978 50.9067 58.8245 48.304C57.6298 47.664 56.4352 47.1947 55.2405 46.896C54.0885 46.5973 52.6378 46.448 50.8885 46.448C48.5845 46.448 46.7498 46.9813 45.3845 48.048C44.0192 49.072 43.3365 50.5227 43.3365 52.4C43.3365 53.8507 43.8485 55.024 44.8725 55.92C45.9392 56.7733 47.2618 57.2 48.8405 57.2ZM78.4065 16.176H85.4465L77.3825 62H70.3425L78.4065 16.176ZM102.174 63.024C99.1878 63.024 96.5212 62.3413 94.1745 60.976C91.8705 59.6107 90.0785 57.7547 88.7985 55.408C87.5185 53.0613 86.8785 50.4587 86.8785 47.6C86.8785 44.016 87.6892 40.752 89.3105 37.808C90.9318 34.864 93.1932 32.56 96.0945 30.896C99.0385 29.1893 102.409 28.336 106.206 28.336C109.193 28.336 111.838 29.0187 114.142 30.384C116.489 31.7493 118.303 33.6053 119.583 35.952C120.862 38.2987 121.502 40.9013 121.502 43.76C121.502 47.344 120.692 50.608 119.07 53.552C117.449 56.496 115.167 58.8213 112.222 60.528C109.321 62.192 105.972 63.024 102.174 63.024ZM102.942 56.56C105.076 56.56 106.996 56.0267 108.702 54.96C110.452 53.8507 111.817 52.3787 112.799 50.544C113.822 48.6667 114.334 46.6187 114.334 44.4C114.334 41.6267 113.524 39.344 111.903 37.552C110.281 35.76 108.126 34.864 105.438 34.864C103.262 34.864 101.3 35.3973 99.5505 36.464C97.8438 37.5307 96.4785 39.0027 95.4545 40.88C94.4732 42.7147 93.9825 44.7413 93.9825 46.96C93.9825 49.7333 94.7932 52.0373 96.4145 53.872C98.0785 55.664 100.254 56.56 102.942 56.56ZM130.132 29.36H136.788L136.02 33.776H136.34C137.279 32.112 138.687 30.8107 140.564 29.872C142.484 28.8907 144.554 28.4 146.772 28.4C148.394 28.4 149.674 28.6133 150.612 29.04L149.268 36.528C148.671 36.144 147.946 35.8453 147.092 35.632C146.239 35.4187 145.386 35.312 144.532 35.312C142.1 35.312 139.924 36.2293 138.004 38.064C136.084 39.8987 134.89 42.1173 134.42 44.72L131.412 62H124.372L130.132 29.36ZM161.602 63.024C159.64 63.024 157.848 62.5973 156.226 61.744C154.605 60.848 153.304 59.632 152.322 58.096C151.384 56.56 150.914 54.832 150.914 52.912C150.914 49.2853 152.216 46.4053 154.818 44.272C157.421 42.1387 161.069 41.072 165.762 41.072C167.341 41.072 168.898 41.2427 170.434 41.584C171.97 41.9253 173.357 42.3733 174.594 42.928L174.914 41.328C175.042 40.688 175.106 40.176 175.106 39.792C175.106 38.1707 174.402 36.8693 172.994 35.888C171.629 34.864 169.944 34.352 167.938 34.352C164.61 34.352 161.88 35.632 159.746 38.192L154.69 34.544C156.312 32.5387 158.338 31.0027 160.77 29.936C163.202 28.8693 165.848 28.336 168.706 28.336C172.802 28.336 176.024 29.3173 178.37 31.28C180.717 33.2427 181.89 35.8453 181.89 39.088C181.89 39.984 181.784 41.1147 181.57 42.48L178.114 62H171.202L171.906 58.096H171.522C170.456 59.632 169.09 60.848 167.426 61.744C165.762 62.5973 163.821 63.024 161.602 63.024ZM163.65 57.2C166.21 57.2 168.408 56.368 170.242 54.704C172.077 53.04 173.208 50.9067 173.634 48.304C172.44 47.664 171.245 47.1947 170.05 46.896C168.898 46.5973 167.448 46.448 165.698 46.448C163.394 46.448 161.56 46.9813 160.194 48.048C158.829 49.072 158.146 50.5227 158.146 52.4C158.146 53.8507 158.658 55.024 159.682 55.92C160.749 56.7733 162.072 57.2 163.65 57.2ZM201.032 63.024C198.045 63.024 195.379 62.3413 193.032 60.976C190.728 59.6107 188.936 57.7547 187.656 55.408C186.376 53.0613 185.736 50.4587 185.736 47.6C185.736 44.016 186.547 40.752 188.168 37.808C189.789 34.864 192.051 32.56 194.952 30.896C197.896 29.1893 201.267 28.336 205.064 28.336C208.051 28.336 210.696 29.0187 213 30.384C215.347 31.7493 217.16 33.6053 218.44 35.952C219.72 38.2987 220.36 40.9013 220.36 43.76C220.36 47.344 219.549 50.608 217.928 53.552C216.307 56.496 214.024 58.8213 211.08 60.528C208.179 62.192 204.829 63.024 201.032 63.024ZM201.8 56.56C203.933 56.56 205.853 56.0267 207.56 54.96C209.309 53.8507 210.675 52.3787 211.656 50.544C212.68 48.6667 213.192 46.6187 213.192 44.4C213.192 41.6267 212.381 39.344 210.76 37.552C209.139 35.76 206.984 34.864 204.296 34.864C202.12 34.864 200.157 35.3973 198.408 36.464C196.701 37.5307 195.336 39.0027 194.312 40.88C193.331 42.7147 192.84 44.7413 192.84 46.96C192.84 49.7333 193.651 52.0373 195.272 53.872C196.936 55.664 199.112 56.56 201.8 56.56Z" fill="white"></path>
<path d="M2.112 29.36V28.36H0.851805L1.13816 29.5872L2.112 29.36ZM9.856 29.36L10.8364 29.1629L10.6749 28.36H9.856V29.36ZM14.592 52.912L13.6116 53.1091L13.7731 53.912H14.592V52.912ZM14.912 52.912V53.912H15.4955L15.7826 53.4041L14.912 52.912ZM28.224 29.36V28.36H27.6405L27.3534 28.8679L28.224 29.36ZM36.16 29.36L37.0197 29.8708L37.9173 28.36H36.16V29.36ZM16.768 62V63H17.3371L17.6277 62.5108L16.768 62ZM9.728 62L8.75416 62.2272L8.93447 63H9.728V62ZM2.112 30.36H9.856V28.36H2.112V30.36ZM8.87563 29.5571L13.6116 53.1091L15.5724 52.7149L10.8364 29.1629L8.87563 29.5571ZM14.592 53.912H14.912V51.912H14.592V53.912ZM15.7826 53.4041L29.0946 29.8521L27.3534 28.8679L14.0414 52.4199L15.7826 53.4041ZM28.224 30.36H36.16V28.36H28.224V30.36ZM35.3003 28.8492L15.9083 61.4892L17.6277 62.5108L37.0197 29.8708L35.3003 28.8492ZM16.768 61H9.728V63H16.768V61ZM10.7018 61.7728L3.08584 29.1328L1.13816 29.5872L8.75416 62.2272L10.7018 61.7728ZM41.4165 61.744L40.9328 62.6192L40.9417 62.6242L40.9508 62.6289L41.4165 61.744ZM37.5125 58.096L36.6592 58.6175L36.6644 58.626L36.6698 58.6344L37.5125 58.096ZM40.0085 44.272L40.6424 45.0454L40.0085 44.272ZM55.6245 41.584L55.4076 42.5602L55.6245 41.584ZM59.7845 42.928L59.3754 43.8405L60.5193 44.3533L60.7651 43.1241L59.7845 42.928ZM60.1045 41.328L59.1239 41.1319L60.1045 41.328ZM58.1845 35.888L57.5845 36.688L57.5984 36.6984L57.6127 36.7084L58.1845 35.888ZM44.9365 38.192L44.3514 39.0029L45.1077 39.5486L45.7047 38.8322L44.9365 38.192ZM39.8805 34.544L39.1029 33.9153L38.4387 34.7368L39.2954 35.3549L39.8805 34.544ZM45.9605 29.936L45.5588 29.0202L45.9605 29.936ZM63.5605 31.28L62.9189 32.0471L63.5605 31.28ZM66.7605 42.48L67.7452 42.6543L67.7469 42.6444L67.7485 42.6344L66.7605 42.48ZM63.3045 62V63H64.143L64.2892 62.1743L63.3045 62ZM56.3925 62L55.4084 61.8225L55.196 63H56.3925V62ZM57.0965 58.096L58.0806 58.2735L58.293 57.096H57.0965V58.096ZM56.7125 58.096V57.096H56.1895L55.8911 57.5256L56.7125 58.096ZM52.6165 61.744L53.0728 62.6338L53.0818 62.6292L53.0906 62.6245L52.6165 61.744ZM55.4325 54.704L56.1043 55.4447L55.4325 54.704ZM58.8245 48.304L59.8113 48.4658L59.927 47.7602L59.2967 47.4225L58.8245 48.304ZM55.2405 46.896L54.9895 47.864L54.998 47.8661L55.2405 46.896ZM45.3845 48.048L45.9845 48.848L45.9924 48.8421L46.0001 48.836L45.3845 48.048ZM44.8725 55.92L44.214 56.6726L44.2306 56.6871L44.2478 56.7009L44.8725 55.92ZM46.7925 62.024C44.9803 62.024 43.3498 61.6315 41.8822 60.8591L40.9508 62.6289C42.7258 63.5632 44.6794 64.024 46.7925 64.024V62.024ZM41.9002 60.8688C40.4222 60.052 39.2453 58.9508 38.3552 57.5576L36.6698 58.6344C37.7424 60.3132 39.1681 61.644 40.9328 62.6192L41.9002 60.8688ZM38.3658 57.5746C37.5295 56.2061 37.1045 54.6608 37.1045 52.912H35.1045C35.1045 55.0032 35.6182 56.9139 36.6592 58.6175L38.3658 57.5746ZM37.1045 52.912C37.1045 49.5584 38.2913 46.9725 40.6424 45.0454L39.3746 43.4986C36.5204 45.8381 35.1045 49.0123 35.1045 52.912H37.1045ZM40.6424 45.0454C43.0072 43.107 46.4002 42.072 50.9525 42.072V40.072C46.1181 40.072 42.2151 41.1703 39.3746 43.4986L40.6424 45.0454ZM50.9525 42.072C52.4584 42.072 53.943 42.2347 55.4076 42.5602L55.8414 40.6078C54.234 40.2506 52.6039 40.072 50.9525 40.072V42.072ZM55.4076 42.5602C56.8878 42.8891 58.2087 43.3175 59.3754 43.8405L60.1936 42.0155C58.8856 41.4292 57.4332 40.9615 55.8414 40.6078L55.4076 42.5602ZM60.7651 43.1241L61.0851 41.5241L59.1239 41.1319L58.8039 42.7319L60.7651 43.1241ZM61.0851 41.5241C61.2184 40.8576 61.2965 40.2718 61.2965 39.792H59.2965C59.2965 40.0802 59.2466 40.5184 59.1239 41.1319L61.0851 41.5241ZM61.2965 39.792C61.2965 37.8216 60.414 36.223 58.7563 35.0676L57.6127 36.7084C58.771 37.5157 59.2965 38.5197 59.2965 39.792H61.2965ZM58.7845 35.088C57.2171 33.9125 55.311 33.352 53.1285 33.352V35.352C54.9567 35.352 56.4212 35.8155 57.5845 36.688L58.7845 35.088ZM53.1285 33.352C49.5033 33.352 46.4913 34.7642 44.1683 37.5518L45.7047 38.8322C47.6483 36.4998 50.0977 35.352 53.1285 35.352V33.352ZM45.5216 37.3811L40.4656 33.733L39.2954 35.3549L44.3514 39.0029L45.5216 37.3811ZM40.6581 35.1727C42.1758 33.2956 44.0721 31.8562 46.3622 30.8518L45.5588 29.0202C42.9849 30.1491 40.8278 31.7818 39.1029 33.9153L40.6581 35.1727ZM46.3622 30.8518C48.6581 29.8448 51.1654 29.336 53.8965 29.336V27.336C50.9103 27.336 48.1269 27.8939 45.5588 29.0202L46.3622 30.8518ZM53.8965 29.336C57.8379 29.336 60.8052 30.2792 62.9189 32.0471L64.2021 30.5129C61.6224 28.3554 58.1471 27.336 53.8965 27.336V29.336ZM62.9189 32.0471C65.0233 33.8071 66.0805 36.1212 66.0805 39.088H68.0805C68.0805 35.5695 66.791 32.6782 64.2021 30.5129L62.9189 32.0471ZM66.0805 39.088C66.0805 39.9125 65.9816 40.9871 65.7725 42.3256L67.7485 42.6344C67.966 41.2422 68.0805 40.0555 68.0805 39.088H66.0805ZM65.7758 42.3057L62.3198 61.8257L64.2892 62.1743L67.7452 42.6543L65.7758 42.3057ZM63.3045 61H56.3925V63H63.3045V61ZM57.3766 62.1775L58.0806 58.2735L56.1124 57.9185L55.4084 61.8225L57.3766 62.1775ZM57.0965 57.096H56.7125V59.096H57.0965V57.096ZM55.8911 57.5256C54.9152 58.9309 53.6694 60.0413 52.1424 60.8635L53.0906 62.6245C54.8916 61.6547 56.3765 60.3331 57.5339 58.6664L55.8911 57.5256ZM52.1602 60.8542C50.6614 61.6228 48.8819 62.024 46.7925 62.024V64.024C49.1404 64.024 51.2436 63.5719 53.0728 62.6338L52.1602 60.8542ZM48.8405 58.2C51.6397 58.2 54.079 57.2816 56.1043 55.4447L54.7607 53.9633C53.1167 55.4544 51.1613 56.2 48.8405 56.2V58.2ZM56.1043 55.4447C58.1177 53.6186 59.3506 51.276 59.8113 48.4658L57.8377 48.1422C57.445 50.5374 56.4167 52.4613 54.7607 53.9633L56.1043 55.4447ZM59.2967 47.4225C58.0366 46.7475 56.7652 46.2464 55.483 45.9259L54.998 47.8661C56.1052 48.1429 57.223 48.5805 58.3523 49.1855L59.2967 47.4225ZM55.4915 45.928C54.2289 45.6007 52.6868 45.448 50.8885 45.448V47.448C52.5889 47.448 53.9481 47.594 54.9895 47.864L55.4915 45.928ZM50.8885 45.448C48.4349 45.448 46.3603 46.0167 44.7689 47.26L46.0001 48.836C47.1394 47.946 48.7341 47.448 50.8885 47.448V45.448ZM44.7845 47.248C43.1396 48.4816 42.3365 50.2442 42.3365 52.4H44.3365C44.3365 50.8011 44.8987 49.6624 45.9845 48.848L44.7845 47.248ZM42.3365 52.4C42.3365 54.1174 42.9572 55.5729 44.214 56.6726L45.531 55.1674C44.7398 54.4751 44.3365 53.5839 44.3365 52.4H42.3365ZM44.2478 56.7009C45.5187 57.7176 47.0718 58.2 48.8405 58.2V56.2C47.4518 56.2 46.3596 55.8291 45.4972 55.1391L44.2478 56.7009ZM78.4065 16.176V15.176H77.5671L77.4216 16.0027L78.4065 16.176ZM85.4465 16.176L86.4314 16.3493L86.6378 15.176H85.4465V16.176ZM77.3825 62V63H78.2219L78.3674 62.1733L77.3825 62ZM70.3425 62L69.3576 61.8267L69.1512 63H70.3425V62ZM78.4065 17.176H85.4465V15.176H78.4065V17.176ZM84.4616 16.0027L76.3976 61.8267L78.3674 62.1733L86.4314 16.3493L84.4616 16.0027ZM77.3825 61H70.3425V63H77.3825V61ZM71.3274 62.1733L79.3914 16.3493L77.4216 16.0027L69.3576 61.8267L71.3274 62.1733ZM94.1745 60.976L93.6647 61.8363L93.6716 61.8403L94.1745 60.976ZM88.7985 55.408L89.6764 54.9291L88.7985 55.408ZM89.3105 37.808L88.4345 37.3256L89.3105 37.808ZM96.0945 30.896L96.592 31.7635L96.596 31.7611L96.0945 30.896ZM114.143 30.384L113.633 31.2443L113.64 31.2483L114.143 30.384ZM119.583 35.952L120.46 35.4731L119.583 35.952ZM119.07 53.552L119.946 54.0344L119.07 53.552ZM112.223 60.528L112.72 61.3955L112.724 61.3931L112.223 60.528ZM108.702 54.96L109.233 55.808L109.238 55.8045L108.702 54.96ZM112.799 50.544L111.921 50.0651L111.917 50.0723L112.799 50.544ZM111.902 37.552L112.644 36.8811L111.902 37.552ZM99.5505 36.464L99.0299 35.6101L99.0205 35.616L99.5505 36.464ZM95.4545 40.88L94.5766 40.4011L94.5727 40.4083L95.4545 40.88ZM96.4145 53.872L95.6652 54.5342L95.6733 54.5434L95.6817 54.5525L96.4145 53.872ZM102.174 62.024C99.3463 62.024 96.8564 61.3794 94.6774 60.1117L93.6716 61.8403C96.186 63.3032 99.0293 64.024 102.174 64.024V62.024ZM94.6843 60.1157C92.5348 58.8419 90.8701 57.1176 89.6764 54.9291L87.9206 55.8869C89.2869 58.3918 91.2062 60.3794 93.6647 61.8363L94.6843 60.1157ZM89.6764 54.9291C88.4821 52.7395 87.8785 50.3033 87.8785 47.6H85.8785C85.8785 50.614 86.5549 53.3831 87.9206 55.8869L89.6764 54.9291ZM87.8785 47.6C87.8785 44.1731 88.6519 41.0768 90.1864 38.2904L88.4345 37.3256C86.7264 40.4272 85.8785 43.8589 85.8785 47.6H87.8785ZM90.1864 38.2904C91.7198 35.5062 93.8506 33.3358 96.592 31.7635L95.597 30.0285C92.5358 31.7842 90.1439 34.2218 88.4345 37.3256L90.1864 38.2904ZM96.596 31.7611C99.3705 30.1527 102.564 29.336 106.206 29.336V27.336C102.254 27.336 98.7065 28.2259 95.593 30.0309L96.596 31.7611ZM106.206 29.336C109.035 29.336 111.5 29.9806 113.633 31.2443L114.652 29.5237C112.177 28.0567 109.351 27.336 106.206 27.336V29.336ZM113.64 31.2483C115.831 32.5234 117.513 34.2471 118.705 36.4309L120.46 35.4731C119.092 32.9635 117.147 30.9753 114.645 29.5197L113.64 31.2483ZM118.705 36.4309C119.899 38.6205 120.503 41.0567 120.503 43.76H122.503C122.503 40.746 121.826 37.9769 120.46 35.4731L118.705 36.4309ZM120.503 43.76C120.503 47.1869 119.729 50.2832 118.195 53.0696L119.946 54.0344C121.655 50.9328 122.503 47.5011 122.503 43.76H120.503ZM118.195 53.0696C116.662 55.8523 114.51 58.0462 111.721 59.6629L112.724 61.3931C115.823 59.5965 118.236 57.1397 119.946 54.0344L118.195 53.0696ZM111.725 59.6605C108.995 61.2265 105.821 62.024 102.174 62.024V64.024C106.122 64.024 109.648 63.1575 112.72 61.3955L111.725 59.6605ZM102.942 57.56C105.251 57.56 107.357 56.98 109.232 55.808L108.173 54.112C106.634 55.0733 104.9 55.56 102.942 55.56V57.56ZM109.238 55.8045C111.134 54.6024 112.618 53.0017 113.68 51.0157L111.917 50.0723C111.016 51.7557 109.77 53.0989 108.167 54.1155L109.238 55.8045ZM113.676 51.0229C114.784 48.993 115.335 46.7795 115.335 44.4H113.335C113.335 46.4579 112.861 48.3403 111.921 50.0651L113.676 51.0229ZM115.335 44.4C115.335 41.4178 114.456 38.884 112.644 36.8811L111.161 38.2229C112.591 39.804 113.335 41.8355 113.335 44.4H115.335ZM112.644 36.8811C110.811 34.8547 108.374 33.864 105.438 33.864V35.864C107.879 35.864 109.752 36.6653 111.161 38.2229L112.644 36.8811ZM105.438 33.864C103.091 33.864 100.946 34.4419 99.0299 35.6102L100.071 37.3178C101.654 36.3527 103.434 35.864 105.438 35.864V33.864ZM99.0205 35.616C97.1589 36.7795 95.6776 38.3827 94.5766 40.4011L96.3324 41.3589C97.2794 39.6227 98.5287 38.2818 100.08 37.312L99.0205 35.616ZM94.5727 40.4083C93.5086 42.3977 92.9825 44.588 92.9825 46.96H94.9825C94.9825 44.8946 95.4377 43.0316 96.3363 41.3517L94.5727 40.4083ZM92.9825 46.96C92.9825 49.9426 93.8608 52.4924 95.6652 54.5342L97.1638 53.2098C95.7256 51.5823 94.9825 49.524 94.9825 46.96H92.9825ZM95.6817 54.5525C97.5548 56.5697 100.007 57.56 102.942 57.56V55.56C100.502 55.56 98.6022 54.7583 97.1473 53.1915L95.6817 54.5525ZM130.132 29.36V28.36H129.294L129.148 29.1862L130.132 29.36ZM136.788 29.36L137.774 29.5313L137.977 28.36H136.788V29.36ZM136.02 33.776L135.035 33.6047L134.832 34.776H136.02V33.776ZM136.34 33.776V34.776H136.925L137.211 34.2673L136.34 33.776ZM140.564 29.872L141.012 30.7665L141.02 30.7624L140.564 29.872ZM150.613 29.04L151.597 29.2167L151.734 28.4514L151.026 28.1296L150.613 29.04ZM149.268 36.528L148.728 37.3692L149.988 38.1794L150.253 36.7047L149.268 36.528ZM147.092 35.632L147.335 34.6619V34.6619L147.092 35.632ZM138.005 38.064L138.695 38.787L138.005 38.064ZM134.421 44.72L133.436 44.5425L133.435 44.5485L134.421 44.72ZM131.412 62V63H132.253L132.398 62.1715L131.412 62ZM124.372 62L123.388 61.8262L123.181 63H124.372V62ZM130.132 30.36H136.788V28.36H130.132V30.36ZM135.803 29.1887L135.035 33.6047L137.006 33.9473L137.774 29.5313L135.803 29.1887ZM136.02 34.776H136.34V32.776H136.02V34.776ZM137.211 34.2673C138.043 32.794 139.294 31.6251 141.012 30.7664L140.117 28.9776C138.08 29.9962 136.516 31.43 135.47 33.2847L137.211 34.2673ZM141.02 30.7624C142.795 29.8552 144.707 29.4 146.772 29.4V27.4C144.4 27.4 142.174 27.9261 140.109 28.9816L141.02 30.7624ZM146.772 29.4C148.324 29.4 149.443 29.6069 150.199 29.9504L151.026 28.1296C149.905 27.6197 148.464 27.4 146.772 27.4V29.4ZM149.628 28.8633L148.284 36.3513L150.253 36.7047L151.597 29.2167L149.628 28.8633ZM149.809 35.6868C149.101 35.2317 148.27 34.8956 147.335 34.6619L146.85 36.6021C147.622 36.7951 148.241 37.0563 148.728 37.3692L149.809 35.6868ZM147.335 34.6619C146.405 34.4293 145.47 34.312 144.533 34.312V36.312C145.302 36.312 146.074 36.408 146.85 36.6021L147.335 34.6619ZM144.533 34.312C141.818 34.312 139.401 35.3464 137.314 37.341L138.695 38.787C140.448 37.1122 142.383 36.312 144.533 36.312V34.312ZM137.314 37.341C135.241 39.3212 133.943 41.7306 133.436 44.5425L135.405 44.8975C135.836 42.504 136.928 40.4761 138.695 38.787L137.314 37.341ZM133.435 44.5485L130.427 61.8285L132.398 62.1715L135.406 44.8915L133.435 44.5485ZM131.412 61H124.372V63H131.412V61ZM125.357 62.1738L131.117 29.5338L129.148 29.1862L123.388 61.8262L125.357 62.1738ZM156.227 61.744L155.743 62.6192L155.752 62.6242L155.761 62.6289L156.227 61.744ZM152.322 58.096L151.469 58.6175L151.474 58.626L151.48 58.6344L152.322 58.096ZM154.818 44.272L155.452 45.0454L154.818 44.272ZM170.434 41.584L170.218 42.5602H170.218L170.434 41.584ZM174.594 42.928L174.185 43.8405L175.329 44.3533L175.575 43.1241L174.594 42.928ZM174.914 41.328L173.934 41.1319L174.914 41.328ZM172.994 35.888L172.395 36.688L172.408 36.6984L172.423 36.7084L172.994 35.888ZM159.746 38.192L159.161 39.0029L159.918 39.5486L160.515 38.8322L159.746 38.192ZM154.69 34.544L153.913 33.9153L153.249 34.7368L154.105 35.3549L154.69 34.544ZM160.77 29.936L160.369 29.0202L160.77 29.936ZM178.37 31.28L177.729 32.0471L178.37 31.28ZM181.57 42.48L182.555 42.6543L182.557 42.6444L182.559 42.6344L181.57 42.48ZM178.115 62V63H178.953L179.099 62.1743L178.115 62ZM171.202 62L170.218 61.8225L170.006 63H171.202V62ZM171.906 58.096L172.891 58.2735L173.103 57.096H171.906V58.096ZM171.522 58.096V57.096H170.999L170.701 57.5256L171.522 58.096ZM167.426 61.744L167.883 62.6338L167.892 62.6292L167.901 62.6245L167.426 61.744ZM170.242 54.704L170.914 55.4447L170.242 54.704ZM173.634 48.304L174.621 48.4658L174.737 47.7602L174.107 47.4225L173.634 48.304ZM170.05 46.896L169.8 47.864L169.808 47.8661L170.05 46.896ZM160.195 48.048L160.794 48.848L160.802 48.8421L160.81 48.836L160.195 48.048ZM159.682 55.92L159.024 56.6726L159.041 56.6871L159.058 56.7009L159.682 55.92ZM161.602 62.024C159.79 62.024 158.16 61.6315 156.692 60.8591L155.761 62.6289C157.536 63.5632 159.489 64.024 161.602 64.024V62.024ZM156.71 60.8688C155.232 60.052 154.055 58.9508 153.165 57.5576L151.48 58.6344C152.552 60.3132 153.978 61.644 155.743 62.6192L156.71 60.8688ZM153.176 57.5746C152.34 56.2061 151.914 54.6608 151.914 52.912H149.914C149.914 55.0032 150.428 56.9139 151.469 58.6175L153.176 57.5746ZM151.914 52.912C151.914 49.5584 153.101 46.9725 155.452 45.0454L154.185 43.4986C151.33 45.8381 149.914 49.0123 149.914 52.912H151.914ZM155.452 45.0454C157.817 43.107 161.21 42.072 165.762 42.072V40.072C160.928 40.072 157.025 41.1703 154.185 43.4986L155.452 45.0454ZM165.762 42.072C167.268 42.072 168.753 42.2347 170.218 42.5602L170.651 40.6078C169.044 40.2506 167.414 40.072 165.762 40.072V42.072ZM170.218 42.5602C171.698 42.8891 173.019 43.3175 174.185 43.8405L175.004 42.0155C173.696 41.4292 172.243 40.9615 170.651 40.6078L170.218 42.5602ZM175.575 43.1241L175.895 41.5241L173.934 41.1319L173.614 42.7319L175.575 43.1241ZM175.895 41.5241C176.028 40.8576 176.107 40.2718 176.107 39.792H174.107C174.107 40.0802 174.057 40.5184 173.934 41.1319L175.895 41.5241ZM176.107 39.792C176.107 37.8216 175.224 36.223 173.566 35.0676L172.423 36.7084C173.581 37.5157 174.107 38.5197 174.107 39.792H176.107ZM173.594 35.088C172.027 33.9125 170.121 33.352 167.938 33.352V35.352C169.767 35.352 171.231 35.8155 172.395 36.688L173.594 35.088ZM167.938 33.352C164.313 33.352 161.301 34.7642 158.978 37.5518L160.515 38.8322C162.458 36.4998 164.908 35.352 167.938 35.352V33.352ZM160.332 37.3811L155.276 33.733L154.105 35.3549L159.161 39.0029L160.332 37.3811ZM155.468 35.1727C156.986 33.2956 158.882 31.8562 161.172 30.8518L160.369 29.0202C157.795 30.1491 155.638 31.7818 153.913 33.9153L155.468 35.1727ZM161.172 30.8518C163.468 29.8448 165.975 29.336 168.706 29.336V27.336C165.72 27.336 162.937 27.8939 160.369 29.0202L161.172 30.8518ZM168.706 29.336C172.648 29.336 175.615 30.2792 177.729 32.0471L179.012 30.5129C176.432 28.3554 172.957 27.336 168.706 27.336V29.336ZM177.729 32.0471C179.833 33.8071 180.891 36.1212 180.891 39.088H182.891C182.891 35.5695 181.601 32.6782 179.012 30.5129L177.729 32.0471ZM180.891 39.088C180.891 39.9125 180.792 40.9871 180.582 42.3256L182.559 42.6344C182.776 41.2422 182.891 40.0555 182.891 39.088H180.891ZM180.586 42.3057L177.13 61.8257L179.099 62.1743L182.555 42.6543L180.586 42.3057ZM178.115 61H171.202V63H178.115V61ZM172.187 62.1775L172.891 58.2735L170.922 57.9185L170.218 61.8225L172.187 62.1775ZM171.906 57.096H171.522V59.096H171.906V57.096ZM170.701 57.5256C169.725 58.9309 168.479 60.0413 166.952 60.8635L167.901 62.6245C169.702 61.6547 171.186 60.3331 172.344 58.6664L170.701 57.5256ZM166.97 60.8542C165.471 61.6228 163.692 62.024 161.602 62.024V64.024C163.95 64.024 166.054 63.5719 167.883 62.6338L166.97 60.8542ZM163.65 58.2C166.45 58.2 168.889 57.2816 170.914 55.4447L169.571 53.9633C167.927 55.4544 165.971 56.2 163.65 56.2V58.2ZM170.914 55.4447C172.928 53.6186 174.161 51.276 174.621 48.4658L172.648 48.1422C172.255 50.5374 171.227 52.4613 169.571 53.9633L170.914 55.4447ZM174.107 47.4225C172.847 46.7475 171.575 46.2464 170.293 45.9259L169.808 47.8661C170.915 48.1429 172.033 48.5805 173.162 49.1855L174.107 47.4225ZM170.301 45.928C169.039 45.6007 167.497 45.448 165.699 45.448V47.448C167.399 47.448 168.758 47.594 169.8 47.864L170.301 45.928ZM165.699 45.448C163.245 45.448 161.17 46.0167 159.579 47.26L160.81 48.836C161.949 47.946 163.544 47.448 165.699 47.448V45.448ZM159.594 47.248C157.95 48.4816 157.146 50.2442 157.146 52.4H159.146C159.146 50.8011 159.709 49.6624 160.794 48.848L159.594 47.248ZM157.146 52.4C157.146 54.1174 157.767 55.5729 159.024 56.6726L160.341 55.1674C159.55 54.4751 159.146 53.5839 159.146 52.4H157.146ZM159.058 56.7009C160.329 57.7176 161.882 58.2 163.65 58.2V56.2C162.262 56.2 161.17 55.8291 160.307 55.1391L159.058 56.7009ZM193.032 60.976L192.522 61.8363L192.529 61.8403L193.032 60.976ZM187.656 55.408L188.534 54.9291L187.656 55.408ZM188.168 37.808L187.292 37.3256L188.168 37.808ZM194.952 30.896L195.45 31.7635L195.454 31.7611L194.952 30.896ZM213 30.384L212.49 31.2443L212.497 31.2483L213 30.384ZM218.44 35.952L219.318 35.4731L218.44 35.952ZM217.928 53.552L218.804 54.0344L217.928 53.552ZM211.08 60.528L211.578 61.3955L211.582 61.3931L211.08 60.528ZM207.56 54.96L208.09 55.808L208.096 55.8045L207.56 54.96ZM211.656 50.544L210.778 50.0651L210.774 50.0723L211.656 50.544ZM210.76 37.552L211.502 36.8811L210.76 37.552ZM198.408 36.464L197.887 35.6101L197.878 35.616L198.408 36.464ZM194.312 40.88L193.434 40.4011L193.43 40.4083L194.312 40.88ZM195.272 53.872L194.523 54.5342L194.531 54.5434L194.539 54.5525L195.272 53.872ZM201.032 62.024C198.204 62.024 195.714 61.3794 193.535 60.1117L192.529 61.8403C195.043 63.3032 197.887 64.024 201.032 64.024V62.024ZM193.542 60.1157C191.392 58.8419 189.728 57.1176 188.534 54.9291L186.778 55.8869C188.144 58.3918 190.064 60.3794 192.522 61.8363L193.542 60.1157ZM188.534 54.9291C187.34 52.7395 186.736 50.3033 186.736 47.6H184.736C184.736 50.614 185.412 53.3831 186.778 55.8869L188.534 54.9291ZM186.736 47.6C186.736 44.1731 187.509 41.0768 189.044 38.2904L187.292 37.3256C185.584 40.4272 184.736 43.8589 184.736 47.6H186.736ZM189.044 38.2904C190.577 35.5062 192.708 33.3358 195.45 31.7635L194.454 30.0285C191.393 31.7842 189.001 34.2218 187.292 37.3256L189.044 38.2904ZM195.454 31.7611C198.228 30.1527 201.422 29.336 205.064 29.336V27.336C201.111 27.336 197.564 28.2259 194.45 30.0309L195.454 31.7611ZM205.064 29.336C207.892 29.336 210.358 29.9806 212.49 31.2443L213.51 29.5237C211.034 28.0567 208.209 27.336 205.064 27.336V29.336ZM212.497 31.2483C214.689 32.5234 216.371 34.2471 217.562 36.4309L219.318 35.4731C217.949 32.9635 216.005 30.9753 213.503 29.5197L212.497 31.2483ZM217.562 36.4309C218.756 38.6205 219.36 41.0567 219.36 43.76H221.36C221.36 40.746 220.684 37.9769 219.318 35.4731L217.562 36.4309ZM219.36 43.76C219.36 47.1869 218.587 50.2832 217.052 53.0696L218.804 54.0344C220.512 50.9328 221.36 47.5011 221.36 43.76H219.36ZM217.052 53.0696C215.52 55.8523 213.367 58.0462 210.578 59.6629L211.582 61.3931C214.681 59.5965 217.094 57.1397 218.804 54.0344L217.052 53.0696ZM210.582 59.6605C207.852 61.2265 204.679 62.024 201.032 62.024V64.024C204.98 64.024 208.505 63.1575 211.578 61.3955L210.582 59.6605ZM201.8 57.56C204.109 57.56 206.215 56.98 208.09 55.808L207.03 54.112C205.492 55.0733 203.758 55.56 201.8 55.56V57.56ZM208.096 55.8045C209.991 54.6024 211.475 53.0017 212.538 51.0157L210.774 50.0723C209.874 51.7557 208.627 53.0989 207.024 54.1155L208.096 55.8045ZM212.534 51.0229C213.641 48.993 214.192 46.7795 214.192 44.4H212.192C212.192 46.4579 211.719 48.3403 210.778 50.0651L212.534 51.0229ZM214.192 44.4C214.192 41.4178 213.314 38.884 211.502 36.8811L210.018 38.2229C211.449 39.804 212.192 41.8355 212.192 44.4H214.192ZM211.502 36.8811C209.668 34.8547 207.231 33.864 204.296 33.864V35.864C206.737 35.864 208.609 36.6653 210.018 38.2229L211.502 36.8811ZM204.296 33.864C201.948 33.864 199.803 34.4419 197.887 35.6102L198.929 37.3178C200.511 36.3527 202.292 35.864 204.296 35.864V33.864ZM197.878 35.616C196.016 36.7795 194.535 38.3827 193.434 40.4011L195.19 41.3589C196.137 39.6227 197.386 38.2818 198.938 37.312L197.878 35.616ZM193.43 40.4083C192.366 42.3977 191.84 44.588 191.84 46.96H193.84C193.84 44.8946 194.295 43.0316 195.194 41.3517L193.43 40.4083ZM191.84 46.96C191.84 49.9426 192.718 52.4924 194.523 54.5342L196.021 53.2098C194.583 51.5823 193.84 49.524 193.84 46.96H191.84ZM194.539 54.5525C196.412 56.5697 198.865 57.56 201.8 57.56V55.56C199.359 55.56 197.46 54.7583 196.005 53.1915L194.539 54.5525Z" fill="#1F222F" mask="url(#path-1-outside-1_275_1586)"></path>
</svg></svg></g></svg>